<?xml version="1.0" encoding="UTF-8"?>
<svg id="Layer_1" xmlns="http://www.w3.org/2000/svg" xmlns:xlink="http://www.w3.org/1999/xlink" version="1.1" viewBox="0 0 300 300">
  <!-- Generator: Adobe Illustrator 29.5.1, SVG Export Plug-In . SVG Version: 2.1.0 Build 141)  -->
  <defs>
    <style>
      .st0, .st1 {
        fill: none;
      }

      .st2 {
        fill: #473c3a;
      }

      .st3 {
        clip-path: url(#clippath-1);
      }

      .st1 {
        stroke: #473c3a;
        stroke-miterlimit: 10;
        stroke-width: 1.38px;
      }

      .st4 {
        clip-path: url(#clippath);
      }
    </style>
    <clipPath id="clippath">
      <rect class="st0" x="34.11" y="26.26" width="227.8" height="247.48"/>
    </clipPath>
    <clipPath id="clippath-1">
      <rect class="st0" x="34.11" y="26.26" width="227.8" height="247.48"/>
    </clipPath>
  </defs>
  <g class="st4">
    <path class="st2" d="M113.95,83.08c-7.7,1.22-21.11,7.18-24.23,13.84-2.92,6.23.25,16.65,7.78,18.02,17.04,3.1,46.3-10.85,58.09-21.39.23-1.7-1.95-2.84-3.38-3.71-12.39-7.53-25.56-8.77-38.25-6.76M169.92,93.81c24.15,7.27,50.93,10.42,71.72.55,7.46-3.54,20.31-15.61,11.47-24.46-9.89-9.91-28.72-7.86-36.09,1.95-.98,1.31-.41,2.63-2.4,2.69-2.45.07-.5-3.65.13-4.35,23.28-25.91,77.95,12.58,22.23,31.15-16.49,5.5-43.13,3.12-74.52-5.86-3.32-.95-10.82,6.16-18.96,10.62-13.74,7.53-33.28,15.22-43.26,14.68-15.82-.85-20.44-19.61-11.39-28.94,12.31-12.69,38.2-17.09,56.18-9.38,5.96,2.55,14.41,9.42,20.48,6.38,17.02-8.53,35.05-37.5,15.72-53.49C141.24,8.94,51.31,83.8,41.08,117.34c-.78,1-1.1,1.23-2.21.1C46.12,81.25,141.72,3.74,183.71,33.68c16.4,14.48,8.2,35.91-4.13,48.1-2.6,3.38-15.65,10.22-9.66,12.02"/>
    <path class="st1" d="M113.95,83.08c-7.7,1.22-21.11,7.18-24.23,13.84-2.92,6.23.25,16.65,7.78,18.02,17.04,3.1,46.3-10.85,58.09-21.39.23-1.7-1.95-2.84-3.38-3.71-12.39-7.53-25.56-8.77-38.25-6.76ZM169.92,93.81c24.15,7.27,50.93,10.42,71.72.55,7.46-3.54,20.31-15.61,11.47-24.46-9.89-9.91-28.72-7.86-36.09,1.95-.98,1.31-.41,2.63-2.4,2.69-2.45.07-.5-3.65.13-4.35,23.28-25.91,77.95,12.58,22.23,31.15-16.49,5.5-43.13,3.12-74.52-5.86-3.32-.95-10.82,6.16-18.96,10.62-13.74,7.53-33.28,15.22-43.26,14.68-15.82-.85-20.44-19.61-11.39-28.94,12.31-12.69,38.2-17.09,56.18-9.38,5.96,2.55,14.41,9.42,20.48,6.38,17.02-8.53,35.05-37.5,15.72-53.49C141.24,8.94,51.31,83.8,41.08,117.34c-.78,1-1.1,1.23-2.21.1C46.12,81.25,141.72,3.74,183.71,33.68c16.4,14.48,8.2,35.91-4.13,48.1-2.6,3.38-15.65,10.22-9.66,12.02Z"/>
    <path class="st2" d="M114.94,66.27c10.88-7.87,27.38-14.16,42.45-11.42,2.12.39,8.26,2.4,4.92,4.4-16.18-5.55-33.1,1.03-45.83,8.84-1.07.22-1.86-1.07-1.54-1.82"/>
    <path class="st1" d="M114.94,66.27c10.88-7.87,27.38-14.16,42.45-11.42,2.12.39,8.26,2.4,4.92,4.4-16.18-5.55-33.1,1.03-45.83,8.84-1.07.22-1.86-1.07-1.54-1.82Z"/>
    <path class="st2" d="M76.61,150.1l-28.21-.37c-.21,8.08.26,16.11.37,24.16l27.85-.37v-23.43ZM83.94,143.88v35.87l-42.5.73v-31.11l-7.33-.37.73-6.58c16.25,1.49,32.73,1.11,49.09,1.46"/>
    <path class="st2" d="M107.39,234.75c-.27-.86-6.06-.55-7.33-.91l.37-6.59c8.93.96,17.99.81,26.92,1.48l20.56.33c.51,8.04.31,17.35-4.31,24.3-3.72,5.6-10.66,9.76-17.11,11.21l-2.6-5.82c10.9-2.97,18.27-11.79,16.69-23.45l-26.22-.34.37,38.44-7.33.36v-38.99Z"/>
    <path class="st2" d="M154.28,259.1c1.53-.14,15.3.39,15.4-.56l-4.78-23.96-11.36-1.47,1.11-6.22,16.48,1.46c.91,9.9,2.92,19.68,5.53,29.24,5.69-.24,11.84-4.02,14.32-9.23.67-1.4,2.13-6.01,2.13-7.39v-6.41c-1.23.18-13.58-.62-13.56-1.3l.79-5.42.55-.57,19.55,1.43c.06,8.12.18,16.87-3.84,24.17-7.89,14.33-28.3,12.73-42.32,12.81v-6.59Z"/>
    <path class="st2" d="M210.71,143.88v36.24h-6.96l-.36-29.65-23.98-.38c-2.23,9.62-3.02,19.6-1.66,29.42-.25,1.02-5.77.35-6.98.98-1.45-10.19-1.03-20.84,1.83-30.75l-6.96-.37.42-5.99.55-.55c14.68.78,29.35,1.26,44.1,1.05"/>
  </g>
  <polygon class="st2" points="89.8 227.61 89.8 256.53 96.39 256.17 96.76 262.76 53.53 265.69 53.16 259.09 82.84 257.26 82.84 234.75 81.92 234.2 53.4 232.76 53.53 226.15 89.8 227.61"/>
  <g class="st3">
    <path class="st2" d="M125.34,134v9.15l34.08.73c.19,7.84-.05,16.23-4.1,23.17-4.84,8.3-14.55,12.36-23.71,13.77l-1.86-6.19c13.15-1.77,22.93-10.59,21.99-24.53l-33.35-.73-.37-15.01,7.33-.36Z"/>
    <path class="st2" d="M226.1,134v9.15l34.08.73c.19,7.84-.05,16.23-4.1,23.17-4.84,8.3-14.55,12.36-23.71,13.77l-1.86-6.19c13.15-1.77,22.93-10.59,21.99-24.53l-33.35-.73-.37-15.01,7.33-.36Z"/>
    <path class="st2" d="M109.95,180.12h-6.96v-28.74c-3.53-1.67-7.9-1.79-11.71-2.76l1.43-6.05,17.24,3.32v34.23Z"/>
    <path class="st2" d="M227.91,229.83c-.03,7.06-1.56,15.43-6.39,20.85-.81.91-1.85,2.35-3.12,2.04-.51-.12-4.76-2.68-4.76-2.96,4.05-3.74,6.21-8.71,6.56-14.23-.12-.48-.53-.45-.88-.6-1.81-.75-12.56-2.08-13-2.58l1.26-5.85,1.42-.33,18.91,3.65Z"/>
    <path class="st2" d="M152.54,213.57l-13.64.85.25-3.03,10.01-1.05c.25-4.45-1.53-10.95-7.04-10.84-6.71.13-8.53,9.22-9.21,14.47l-2.97.02c-.79-.8,2.1-10.76,3.36-12.15l-4.64-2.97,1.97-2.31,4.65,2.51c11.73-7.91,18.44,3.46,17.25,14.49"/>
    <path class="st2" d="M155.53,213.98l.69-3c9.69,1.92,17.13,1.08,14.16-10.98l-14.43-.48v-3.41s17.72,1.25,17.72,1.25c.37,4.44,1.84,11.84-1.93,15.16-4.11,3.61-11.25,2.04-16.2,1.47"/>
  </g>
  <polygon class="st2" points="125.25 197.81 125.25 213.99 121.84 213.99 121.84 199.94 116.3 199.08 117.16 196.1 125.25 197.81"/>
</svg>