<svg width="133" height="107" viewBox="0 0 133 107" fill="none" xmlns="http://www.w3.org/2000/svg">
<path d="M79.9844 31.2567C93.2278 34.3625 107.914 35.7042 119.319 31.4893C123.407 29.9781 130.454 24.8244 125.609 21.0444C120.186 16.8136 109.855 17.6866 105.816 21.8774C105.276 22.4379 105.593 23.0014 104.5 23.0247C103.157 23.0545 104.226 21.4661 104.571 21.1666C117.338 10.105 147.323 26.5385 116.763 34.4668C107.719 36.8131 93.1124 35.7985 75.8934 31.9638C74.0701 31.5574 69.9586 34.5928 65.4943 36.4982C57.9568 39.7145 47.2427 42.9972 41.7681 42.7688C33.0931 42.4064 30.5592 34.3934 35.5237 30.4109C42.2766 24.9936 56.4755 23.115 66.3338 26.4051C69.6026 27.4961 74.2389 30.4283 77.5643 29.1301C86.8978 25.4857 96.7838 13.117 86.1845 6.29046C64.2551 -4.98229 14.9353 26.9843 9.32185 41.3049C8.89192 41.7317 8.7188 41.8315 8.10702 41.3496C12.0876 25.8927 64.5187 -7.20372 87.5459 5.582C96.5392 11.7659 92.0423 20.9147 85.2813 26.1221C83.8575 27.5662 76.7005 30.4867 79.9844 31.2567ZM49.2876 26.6732C45.0651 27.1937 37.709 29.7406 35.9973 32.5826C34.3943 35.2439 36.134 39.6929 40.2642 40.2764C49.6115 41.5984 65.6542 35.6426 72.123 31.1427C72.2484 30.4162 71.0525 29.9305 70.2675 29.5589C63.4703 26.3432 56.2477 25.8148 49.2876 26.6732Z" stroke="#43403F" stroke-width="0.954128" stroke-miterlimit="10"/>
<path d="M79.9844 31.2567C93.2278 34.3625 107.914 35.7042 119.319 31.4893C123.407 29.9781 130.454 24.8244 125.609 21.0444C120.186 16.8136 109.855 17.6866 105.816 21.8774C105.276 22.4379 105.593 23.0014 104.5 23.0247C103.157 23.0545 104.226 21.4661 104.571 21.1666C117.338 10.105 147.323 26.5385 116.763 34.4668C107.719 36.8131 93.1124 35.7985 75.8934 31.9638C74.0701 31.5574 69.9586 34.5928 65.4943 36.4982C57.9568 39.7145 47.2427 42.9972 41.7681 42.7688C33.0931 42.4064 30.5592 34.3934 35.5237 30.4109C42.2766 24.9936 56.4755 23.115 66.3338 26.4051C69.6026 27.4961 74.2389 30.4283 77.5643 29.1301C86.8978 25.4857 96.7838 13.117 86.1845 6.29046C64.2551 -4.98229 14.9354 26.9843 9.32185 41.3049C8.89192 41.7317 8.7188 41.8315 8.10702 41.3496C12.0876 25.8927 64.5187 -7.20372 87.5459 5.582C96.5393 11.7659 92.0423 20.9147 85.2813 26.1221C83.8575 27.5662 76.7005 30.4867 79.9844 31.2567ZM49.2876 26.6732C45.0651 27.1937 37.709 29.7406 35.9973 32.5826C34.3943 35.2439 36.134 39.6929 40.2642 40.2764C49.6115 41.5984 65.6542 35.6426 72.123 31.1427C72.2484 30.4162 71.0525 29.9305 70.2675 29.5589C63.4703 26.3432 56.2477 25.8148 49.2876 26.6732Z" fill="#43403F"/>
<path d="M49.8278 19.4968C55.7959 16.1349 64.8409 13.4517 73.108 14.6196C74.2725 14.7854 77.6384 15.6441 75.8048 16.4987C66.9302 14.1306 57.65 16.9387 50.67 20.2724C50.0853 20.3649 49.6502 19.8153 49.8278 19.4968Z" fill="#43403F"/>
<path d="M49.8278 19.4968C55.7959 16.1349 64.8409 13.4517 73.108 14.6196C74.2725 14.7854 77.6384 15.6441 75.8048 16.4987C66.9302 14.1306 57.65 16.9387 50.67 20.2724C50.0853 20.3649 49.6502 19.8153 49.8278 19.4968Z" stroke="#43403F" stroke-width="0.954128" stroke-miterlimit="10"/>
<path d="M32.8264 52.6368V67.9544L9.51759 68.2671V54.9815L5.49854 54.8236L5.90171 52.0121C14.813 52.6467 23.8499 52.4838 32.8264 52.6368ZM28.8073 55.2941L13.3339 55.1369C13.2209 58.5874 13.477 62.0168 13.5351 65.4543L28.8073 65.2971V55.2941Z" fill="#493937"/>
<path d="M45.6866 90.0715C45.5403 89.7018 42.3642 89.8362 41.6667 89.6814L41.8679 86.8668C46.7665 87.2779 51.7319 87.2129 56.6297 87.4989L67.9035 87.6388C68.1803 91.0732 68.0729 95.0488 65.5417 98.0132C63.4988 100.405 59.6937 102.183 56.1557 102.798L54.7291 100.312C60.7076 99.0441 64.7505 95.2785 63.8845 90.2962L49.5037 90.1489L49.7065 106.562L45.6866 106.718V90.0715Z" fill="#493937"/>
<path d="M71.4068 100.466C72.2482 100.406 79.7988 100.633 79.8505 100.228L77.2311 89.996L71.0037 89.3663L71.6096 86.7126L80.6481 87.3374C81.1483 91.5674 82.2489 95.7392 83.6827 99.8249C86.8055 99.724 90.1741 98.1086 91.5379 95.884C91.9037 95.2866 92.7061 93.3158 92.7061 92.7289V89.9935C92.0333 90.0703 85.2588 89.7304 85.2676 89.4394L85.7042 87.1256L86.004 86.8829L96.726 87.4922C96.7586 90.9594 96.8238 94.6934 94.6186 97.8114C90.2926 103.93 79.0998 103.246 71.4068 103.279V100.466Z" fill="#493937"/>
<path d="M102.352 52.6368V68.1111H98.5337L98.3341 55.4495L85.1851 55.2873C83.9605 59.3972 83.531 63.6551 84.2754 67.8504C84.1402 68.2863 81.1096 67.999 80.4503 68.2677C79.6559 63.9163 79.8857 59.37 81.4539 55.1394L77.6353 54.9821L77.8643 52.4238L78.1665 52.1897C86.2189 52.521 94.265 52.7296 102.352 52.6368Z" fill="#493937"/>
<path d="M36.0416 87.0236V99.3718L39.6583 99.2145L39.8602 102.03L16.1483 103.28L15.9463 100.465L32.2237 99.6844V90.0716L31.7219 89.8369L16.0767 89.2197L16.1499 86.3982L36.0416 87.0236Z" fill="#493937"/>
<path d="M55.5325 48.4165V52.3245L74.2211 52.6359C74.3221 55.9849 74.1909 59.5685 71.9706 62.5317C69.3146 66.0757 63.9897 67.8087 58.9655 68.4124L57.9437 65.768C65.154 65.0132 70.5193 61.2476 70.0016 55.2927L51.7139 54.9819L51.5127 48.5725L55.5325 48.4165Z" fill="#493937"/>
<path d="M110.791 48.4165V52.3245L129.48 52.6359C129.581 55.9849 129.449 59.5685 127.229 62.5317C124.573 66.0757 119.248 67.8087 114.224 68.4124L113.202 65.768C120.412 65.0132 125.778 61.2476 125.26 55.2927L106.972 54.9819L106.771 48.5725L110.791 48.4165Z" fill="#493937"/>
<path d="M47.0932 68.1112H43.2754V55.8416C41.3382 55.1265 38.9446 55.0757 36.8516 54.6628L37.6364 52.0803L47.0932 53.4969V68.1112Z" fill="#493937"/>
<path d="M111.786 87.9685C111.771 90.9813 110.932 94.5581 108.282 96.8731C107.838 97.26 107.264 97.8761 106.571 97.7442C106.292 97.6916 103.961 96.5994 103.962 96.4799C106.186 94.8825 107.365 92.7595 107.558 90.4061C107.49 90.2006 107.268 90.2111 107.074 90.1492C106.079 89.8303 100.185 89.2632 99.9473 89.0496L100.639 86.5519L101.418 86.4095L111.786 87.9685Z" fill="#493937"/>
<path d="M69.5993 80.6162L63.1692 80.927L63.2853 79.8163L68.0025 79.4305C68.1226 77.7985 67.2805 75.4135 64.6849 75.4519C61.5199 75.4996 60.6642 78.8343 60.3461 80.7635L58.9473 80.7722C58.5736 80.4781 59.9374 76.8227 60.5322 76.3138L58.3469 75.2234L59.2749 74.3752L61.4666 75.2977C66.995 72.3933 70.16 76.5664 69.5993 80.6162Z" fill="#493937"/>
<path d="M71.0103 80.7674L71.3347 79.6647C75.9025 80.3674 79.4118 80.0622 78.009 75.6353L71.2051 75.4582L71.2083 74.2069L79.5581 74.6657C79.7323 76.2965 80.4257 79.0115 78.6468 80.2293C76.7096 81.5549 73.3434 80.9785 71.0103 80.7674Z" fill="#493937"/>
<path d="M56.7383 74.8323V80.7717H55.1312V75.6136L52.5181 75.2991L52.9228 74.2057L56.7383 74.8323Z" fill="#493937"/>
</svg>
